<svg width="12" height="60" viewBox="0 0 12 60" fill="none" xmlns="http://www.w3.org/2000/svg">
<path opacity="0.9" d="M7.79199 59.458L7.79199 57.3779C8.30957 57.3535 8.70508 57.2021 8.97852 56.9238C9.24707 56.6455 9.38135 56.2451 9.38135 55.7227C9.38135 55.293 9.27148 54.9561 9.05176 54.7119C8.83203 54.4678 8.54639 54.3457 8.19482 54.3457C7.84814 54.3457 7.56006 54.4897 7.33057 54.7778C7.09619 55.0659 6.86914 55.542 6.64941 56.2061C6.32227 57.2217 5.91455 57.9785 5.42627 58.4766C4.93799 58.9746 4.27637 59.2236 3.44141 59.2236C2.50879 59.2236 1.75439 58.9258 1.17822 58.3301C0.597168 57.7344 0.30664 56.9263 0.30664 55.9058C0.30664 54.9048 0.572754 54.1138 1.10498 53.5327C1.63721 52.9468 2.41602 52.6318 3.44141 52.5879L3.44141 54.6753C3.03125 54.6899 2.71143 54.8145 2.48193 55.0488C2.25244 55.2832 2.1377 55.5835 2.1377 55.9497C2.1377 56.3208 2.23535 56.6113 2.43066 56.8213C2.62598 57.0312 2.90186 57.1362 3.2583 57.1362C3.45361 57.1362 3.62207 57.1045 3.76367 57.041C3.90039 56.9727 4.02734 56.853 4.14453 56.6821C4.26172 56.5063 4.36182 56.3232 4.44482 56.1328C4.52783 55.9375 4.63281 55.6567 4.75977 55.2905C5.13086 54.187 5.56787 53.4058 6.0708 52.9468C6.56885 52.4878 7.21582 52.2583 8.01172 52.2583C8.99805 52.2583 9.77686 52.5879 10.3481 53.2471C10.9146 53.9014 11.1978 54.7363 11.1978 55.752C11.1978 56.9189 10.8877 57.8223 10.2676 58.4619C9.64746 59.0967 8.82227 59.4287 7.79199 59.458ZM5.73389 50.4609C4.69873 50.4609 3.76855 50.2388 2.94336 49.7944C2.11816 49.3501 1.47363 48.7275 1.00977 47.9268C0.541015 47.126 0.30664 46.2202 0.30664 45.2095C0.30664 43.9204 0.628906 42.8682 1.27344 42.0527C1.91309 41.2373 2.78467 40.6855 3.88818 40.3975L3.88818 42.6606C2.77978 43.061 2.22559 43.9106 2.22559 45.2095C2.22559 46.1323 2.55518 46.8818 3.21435 47.458C3.87353 48.0293 4.71338 48.3149 5.73389 48.3149C6.76416 48.3149 7.61133 48.0269 8.27539 47.4507C8.93945 46.8745 9.27148 46.1226 9.27148 45.1948C9.27148 44.4917 9.11523 43.9204 8.80273 43.481C8.49023 43.0366 8.06299 42.7192 7.521 42.5288L7.521 40.3535C8.69287 40.6465 9.59863 41.1982 10.2383 42.0088C10.8779 42.8193 11.1978 43.8813 11.1978 45.1948C11.1978 46.2104 10.9634 47.1211 10.4946 47.9268C10.021 48.7275 9.36914 49.3501 8.53906 49.7944C7.70898 50.2388 6.77393 50.4609 5.73389 50.4609ZM11 38.146L0.497069 38.146L0.497069 34.9014C0.497069 33.7832 0.804686 32.8896 1.41992 32.2207C2.03516 31.5469 2.84326 31.21 3.84424 31.21C4.49365 31.21 5.06494 31.3711 5.5581 31.6934C6.05127 32.0107 6.42969 32.46 6.69336 33.041L11 30.7632L11 33.1216L7.06689 35.1577L7.06689 36.0879L11 36.0879L11 38.146ZM5.24316 36.0879L5.24316 34.9014C5.24316 34.4131 5.12353 34.0298 4.88428 33.7515C4.64502 33.4683 4.29834 33.3267 3.84424 33.3267C3.38037 33.3267 3.02881 33.4683 2.78955 33.7515C2.54541 34.0298 2.42334 34.4131 2.42334 34.9014L2.42334 36.0879L5.24316 36.0879ZM5.73389 29.2002C4.95752 29.2002 4.23486 29.0659 3.56592 28.7974C2.89697 28.5288 2.32324 28.1577 1.84473 27.6841C1.36621 27.2056 0.990233 26.6294 0.716795 25.9556C0.443358 25.2769 0.306639 24.5444 0.306639 23.7583C0.306639 22.7134 0.541014 21.7783 1.00976 20.9531C1.47363 20.123 2.11816 19.4785 2.94336 19.0195C3.76855 18.5557 4.69873 18.3237 5.73388 18.3237C6.77392 18.3237 7.70898 18.5557 8.53906 19.0195C9.36914 19.4785 10.021 20.123 10.4946 20.9531C10.9634 21.7783 11.1978 22.7134 11.1978 23.7583C11.1978 24.8081 10.9634 25.748 10.4946 26.5781C10.021 27.4082 9.36914 28.0527 8.53906 28.5117C7.70898 28.9707 6.77392 29.2002 5.73389 29.2002ZM5.73389 27.0542C6.76904 27.0542 7.61865 26.7515 8.28271 26.146C8.94189 25.5405 9.27148 24.7446 9.27148 23.7583C9.27148 22.7769 8.93945 21.9834 8.27539 21.3779C7.61133 20.7725 6.76416 20.4697 5.73388 20.4697C4.71338 20.4697 3.87353 20.7725 3.21435 21.3779C2.55517 21.9834 2.22558 22.7769 2.22558 23.7583C2.22558 24.7446 2.55517 25.5405 3.21435 26.146C3.87353 26.7515 4.71338 27.0542 5.73389 27.0542ZM11 15.977L0.497068 15.9771L0.497068 13.9043L9.08105 13.9043L9.08105 9.53906L11 9.53906L11 15.977ZM11 7.39014L0.497068 7.39014L0.497068 5.31738L9.08105 5.31738L9.08105 0.952148L11 0.952148L11 7.39014Z" fill="white"/>
</svg>
