<svg width="11" height="11" viewBox="0 0 11 11" fill="none" xmlns="http://www.w3.org/2000/svg">
<path d="M9.00001 5.37006C9.12342 6.2023 8.98127 7.05227 8.59377 7.79907C8.20627 8.54587 7.59316 9.15147 6.84164 9.52973C6.09012 9.90799 5.23846 10.0397 4.4078 9.90599C3.57714 9.77233 2.80977 9.38014 2.21485 8.78522C1.61993 8.1903 1.22774 7.42293 1.09408 6.59227C0.960415 5.76161 1.09208 4.90995 1.47034 4.15843C1.8486 3.40691 2.4542 2.7938 3.201 2.4063C3.9478 2.0188 4.79777 1.87665 5.63001 2.00006C6.47894 2.12594 7.26486 2.52152 7.87171 3.12836C8.47855 3.73521 8.87413 4.52113 9.00001 5.37006Z" stroke="#41EAD4" stroke-width="2" stroke-linecap="round" stroke-linejoin="round"/>
</svg>
